<?xml version="1.0"?><svg width="533.3333333333333" height="533.3333333333333" xmlns="http://www.w3.org/2000/svg" xmlns:xlink="http://www.w3.org/1999/xlink">
 <defs>
  <linearGradient id="linearGradient619">
   <stop stop-color="#000000" offset="0" id="stop620"/>
   <stop stop-color="#ffffff" offset="1" id="stop621"/>
  </linearGradient>
  <linearGradient xlink:href="#linearGradient619" id="linearGradient622"/>
 </defs>
 <g>
  <title>Layer 1</title>
  <path fill="#ff0000" fill-rule="evenodd" stroke="black" stroke-width="3.75" stroke-linejoin="bevel" id="path606" d="m393.550995,316.674988c3.712006,-0.411987 69.899017,7.154999 74.64502,-9.459991c11.866974,-33.22699 -8.703003,-60.917999 -37.184021,-71.203003c-28.480988,-5.537994 -24.523987,-2.372986 -61.708008,-7.91098c-34.018982,-44.303009 -18.987,-113.924011 -100.474976,-108.386017c-91.772003,-2.373001 -106.013016,75.949005 -136.075012,98.893005c-21.3619,25.31601 -102.057798,-11.075989 -104.431198,31.644989c-3.1646,15.032013 -5.538,51.424011 18.987301,67.247009c11.8671,0 31.645603,0.790985 39.557003,0.790985c0.7911,-56.169983 67.246895,-47.467987 68.038902,-1.58197c18.194992,1.58197 156.643982,-1.582001 166.138,-2.373016c-0.825012,-51.490997 75.738983,-53.251984 72.506989,2.338989z"/>
  <path fill="#bfbfbf" fill-rule="evenodd" stroke="#000000" stroke-width="3.75" stroke-linejoin="bevel" id="path607" d="m140.664993,226.519012c0,0 39.557007,-70.411011 70.411011,-88.608017c19.778,-8.701996 35.600998,-13.44899 49.05101,-12.65799c0.790985,-5.53801 4.746002,89.399002 -1.583008,102.056992c-12.658005,3.165009 -112.341003,0.791016 -117.879013,-0.790985z"/>
  <path fill="#bfbfbf" fill-rule="evenodd" stroke="black" stroke-width="3.75" stroke-linejoin="bevel" id="path608" d="m268.037994,125.253006c0,0 -4.746979,99.684006 3.165009,102.848984c13.449005,0.790009 83.069,2.372009 86.234009,-4.747986c-14.240021,-7.119995 -12.65802,-107.594009 -89.399017,-98.100998z"/>
  <path fill="#ffffff" fill-rule="evenodd" stroke="black" stroke-width="3.75" stroke-linejoin="bevel" id="path609" d="m36.2342,236.803986c-5.538,7.120026 -6.329199,15.032013 -4.746899,24.526001c13.449398,6.328003 26.8988,-33.227997 4.746899,-24.526001z"/>
  <path fill="#ffffff" fill-rule="evenodd" stroke="black" stroke-width="3.75" stroke-linejoin="bevel" id="path610" d="m463.449951,266.867096c1.582001,-9.493988 -14.23999,-13.449005 -13.449982,-0.001007c-1.581024,13.450012 14.23999,13.450012 13.449982,0.001007z"/>
  <path fill="#bfbfbf" fill-rule="evenodd" stroke="black" stroke-width="3.75" stroke-linejoin="bevel" id="path611" d="m22.7848,293.765015c0,0 3.1646,-11.075012 20.569601,-1.582001c16.613998,13.449982 -22.15188,22.944 -20.569601,1.582001z"/>
  <path fill="#bfbfbf" fill-rule="evenodd" stroke="black" stroke-width="3.75" stroke-linejoin="bevel" id="path613" d="m477.043701,290.600464c0,0 -3.164612,-11.075012 -20.569611,-1.582001c-16.613983,13.449982 22.151886,22.944 20.569611,1.582001z"/>
  <path fill="none" fill-rule="evenodd" stroke="black" stroke-width="3.75" stroke-linejoin="bevel" id="path615" d="m139.873001,226.519012c22.151001,47.467987 18.197006,83.862 19.778992,83.862c3.164001,0 91.772003,2.371979 99.682999,-1.583008c3.165009,-18.987 -1.582001,-82.278992 -1.582001,-82.278992c-8.702988,3.164978 -100.474991,2.372986 -117.87999,0z"/>
  <path fill="none" fill-rule="evenodd" stroke="black" stroke-width="3.75" stroke-linejoin="bevel" id="path616" d="m270.411011,227.309998c0.790985,6.32901 -2.373016,79.904999 -2.373016,82.278992c13.449005,-0.000977 37.183014,1.582001 47.468018,-2.373993c7.911987,-30.855011 29.138,-34.018982 38.765991,-38.765991c3.165009,-5.537994 3.165009,-45.095001 3.165009,-45.095001c-3.165009,6.32901 -58.545013,5.539001 -87.026001,3.955994z"/>
  <path fill="#bfbfbf" fill-rule="evenodd" stroke="black" stroke-width="3.75" stroke-linejoin="bevel" id="path617" d="m250.632996,239.177002c-0.791,-6.32901 -20.569992,-6.32901 -22.151993,1.583008c0.791,8.701996 21.360001,7.91098 22.151993,-1.583008z"/>
  <path fill="#bfbfbf" fill-rule="evenodd" stroke="black" stroke-width="3.75" stroke-linejoin="bevel" id="path618" d="m353.481079,234.430145c-0.790985,-6.32901 -20.569977,-6.32901 -22.151978,1.583008c0.791016,8.701996 21.360016,7.91098 22.151978,-1.583008z"/>
  <path fill="#ffffff" fill-rule="evenodd" stroke-width="1pt" id="path623" d="m150.158005,219.398987c15.031998,-18.987 30.854996,-76.740982 100.474991,-90.189987c-12.65799,36.391998 -70.412003,93.353989 -100.474991,90.189987z"/>
  <path fill="#ffffff" fill-rule="evenodd" stroke-width="1pt" id="path624" d="m273.575989,130.791c-3.164978,5.537994 -3.955994,51.423996 2.374023,80.695999c18.987,-61.707993 42.720978,-89.399002 -2.374023,-80.695999z"/>
  <g transform="matrix(0.999131,-4.168835e-2,4.168835e-2,0.999131,-2.888449,-52.63805)" id="g631">
   <path fill="#7f8080" fill-rule="evenodd" stroke="black" stroke-width="3.75" stroke-linejoin="bevel" id="path612" d="m106.804276,341.098877c-31.653702,-2.499023 -41.788895,56.373993 1.245003,60.681976c47.797997,-0.790985 32.874992,-61.472992 -1.245003,-60.681976z"/>
   <path fill="#bfbfbf" fill-rule="evenodd" stroke="black" stroke-width="3.75" id="path625" d="m107.009003,353.231995c17.038994,-2.953979 32.716003,32.489014 2.271996,37.26001c-26.127701,-0.455017 -22.038002,-34.080017 -2.271996,-37.26001z"/>
   <path fill="none" fill-rule="evenodd" stroke="black" stroke-width="3.75" id="path626" d="m107.462997,368.681c5.453003,-1.817993 7.271004,7.497986 2.5,6.81601c-6.362,2.5 -8.405998,-5.451996 -2.5,-6.81601z"/>
   <path fill="none" fill-rule="evenodd" stroke="black" stroke-width="1.25" id="path627" d="m107.691002,357.093994c-2.726006,0 -1.818001,8.179016 0.907997,7.951996c2.726997,-0.22699 1.591003,-8.178986 -0.907997,-7.951996z"/>
   <path fill="none" fill-rule="evenodd" stroke="black" stroke-width="1.25" id="path628" d="m109.281364,379.131958c-2.726006,0 -1.818001,8.179016 0.907997,7.951996c2.726997,-0.22699 1.591003,-8.178986 -0.907997,-7.951996z"/>
   <path fill="none" fill-rule="evenodd" stroke="black" stroke-width="1.25" id="path629" d="m123.219696,371.1008c0,-2.726013 -8.179016,-1.818024 -7.951996,0.90799c0.22699,2.72699 8.178986,1.591003 7.951996,-0.90799z"/>
   <path fill="none" fill-rule="evenodd" stroke="black" stroke-width="1.25" id="path630" d="m102.090515,373.599915c0,-2.726013 -8.179016,-1.818024 -7.951996,0.90799c0.22699,2.72699 8.178986,1.591003 7.951996,-0.90799z"/>
  </g>
  <g transform="matrix(0.695839,-0.718198,0.718198,0.695839,15.10177,128.7381)" id="g639">
   <path fill="#7f8080" fill-rule="evenodd" stroke="black" stroke-width="3.75" stroke-linejoin="bevel" id="path640" d="m106.804276,341.098877c-31.653702,-2.499023 -41.788895,56.373993 1.245003,60.681976c47.797997,-0.790985 32.874992,-61.472992 -1.245003,-60.681976z"/>
   <path fill="#bfbfbf" fill-rule="evenodd" stroke="black" stroke-width="3.75" id="path641" d="m107.009003,353.231995c17.038994,-2.953979 32.716003,32.489014 2.271996,37.26001c-26.127701,-0.455017 -22.038002,-34.080017 -2.271996,-37.26001z"/>
   <path fill="none" fill-rule="evenodd" stroke="black" stroke-width="3.75" id="path642" d="m107.462997,368.681c5.453003,-1.817993 7.271004,7.497986 2.5,6.81601c-6.362,2.5 -8.405998,-5.451996 -2.5,-6.81601z"/>
   <path fill="none" fill-rule="evenodd" stroke="black" stroke-width="1.25" id="path643" d="m107.691002,357.093994c-2.726006,0 -1.818001,8.179016 0.907997,7.951996c2.726997,-0.22699 1.591003,-8.178986 -0.907997,-7.951996z"/>
   <path fill="none" fill-rule="evenodd" stroke="black" stroke-width="1.25" id="path644" d="m109.281364,379.131958c-2.726006,0 -1.818001,8.179016 0.907997,7.951996c2.726997,-0.22699 1.591003,-8.178986 -0.907997,-7.951996z"/>
   <path fill="none" fill-rule="evenodd" stroke="black" stroke-width="1.25" id="path645" d="m123.219696,371.1008c0,-2.726013 -8.179016,-1.818024 -7.951996,0.90799c0.22699,2.72699 8.178986,1.591003 7.951996,-0.90799z"/>
   <path fill="none" fill-rule="evenodd" stroke="black" stroke-width="1.25" id="path646" d="m102.090515,373.599915c0,-2.726013 -8.179016,-1.818024 -7.951996,0.90799c0.22699,2.72699 8.178986,1.591003 7.951996,-0.90799z"/>
  </g>
 </g>
</svg>